<?xml version="1.0" standalone="no"?>
<!DOCTYPE svg PUBLIC "-//W3C//DTD SVG 20010904//EN"
 "http://www.w3.org/TR/2001/REC-SVG-20010904/DTD/svg10.dtd">
<svg version="1.0" xmlns="http://www.w3.org/2000/svg"
 width="1024.000000pt" height="1024.000000pt" viewBox="0 0 1024.000000 1024.000000"
 preserveAspectRatio="xMidYMid meet">
<metadata>
Created by potrace 1.16, written by Peter Selinger 2001-2019
</metadata>
<g transform="translate(0.000000,1024.000000) scale(0.100000,-0.100000)"
fill="#000000" stroke="none">
<path d="M1 8723 c1 -891 5 -1450 10 -1353 30 638 95 996 246 1349 228 535
729 1036 1264 1264 353 151 711 216 1349 246 97 5 -462 9 -1352 10 l-1518 1 1
-1517z"/>
<path d="M5875 10229 c-520 -35 -1283 -63 -2065 -74 -610 -9 -1168 -36 -1459
-71 -521 -62 -938 -227 -1286 -509 -124 -100 -355 -339 -447 -462 -208 -277
-335 -570 -412 -953 -75 -372 -94 -799 -98 -2202 -3 -935 -2 -987 15 -1006 17
-18 17 -37 10 -261 -4 -132 -5 -241 0 -241 4 0 7 -6 7 -12 -1 -7 -11 -1 -23
14 l-22 27 -3 -45 c-1 -28 4 -53 14 -69 14 -21 14 -33 3 -95 -7 -38 -15 -70
-19 -70 -4 0 -10 -53 -14 -117 -8 -131 -39 -476 -61 -683 -12 -113 -15 -398
-15 -1767 l0 -1633 2419 0 c1488 0 2457 4 2517 10 282 27 905 56 1509 70 658
15 1152 41 1445 76 507 60 965 242 1286 509 101 85 294 277 382 380 270 320
443 732 517 1227 48 329 84 1113 86 1881 0 230 -3 332 -11 342 -14 17 -26 155
-13 155 5 0 14 -5 21 -12 9 -9 12 -2 12 34 0 28 -6 50 -15 58 -8 7 -12 17 -8
23 4 6 6 120 5 252 l-2 240 24 -30 c13 -16 33 -41 44 -55 l21 -25 1 2553 0
2552 -2127 -1 c-1171 -1 -2177 -5 -2238 -10z m-721 -1890 c-5 -8 4 -10 29 -7
21 2 33 0 30 -6 -4 -5 3 -7 15 -4 12 4 22 2 22 -4 0 -6 7 -7 16 -4 10 4 13 2
8 -6 -5 -8 -2 -9 10 -5 11 5 15 3 10 -5 -5 -8 -2 -9 10 -5 10 4 15 3 11 -3 -6
-10 9 -15 30 -10 5 1 7 -2 3 -6 -8 -8 30 -39 47 -39 6 0 10 -5 10 -12 0 -7 7
-20 15 -30 21 -24 70 -123 70 -140 0 -7 3 -13 8 -13 10 0 -2 -178 -16 -217
-35 -105 -139 -209 -236 -235 -25 -6 -43 -14 -41 -18 2 -3 -15 -4 -38 -2 -32
2 -38 1 -27 -7 12 -8 8 -11 -18 -11 -22 0 -31 4 -26 11 5 8 -6 10 -34 7 -23
-2 -38 1 -35 6 4 5 -3 7 -15 4 -12 -4 -22 -2 -22 4 0 6 -7 7 -16 4 -10 -4 -13
-2 -8 6 5 8 2 9 -10 5 -11 -5 -15 -3 -10 5 5 8 2 9 -10 5 -11 -5 -15 -3 -10 5
5 8 2 9 -9 5 -9 -3 -19 -1 -23 5 -4 7 -3 8 4 4 25 -15 11 1 -20 24 -19 14 -27
16 -19 7 23 -29 6 -18 -25 15 -17 19 -21 27 -9 19 11 -7 4 1 -15 19 -19 18
-28 29 -20 26 12 -6 12 -5 -1 6 -9 7 -14 19 -12 25 3 7 -2 16 -11 19 -8 3 -12
12 -9 21 5 12 3 14 -6 8 -10 -5 -11 -2 -6 14 3 12 2 21 -4 21 -6 0 -8 16 -5
38 4 28 3 33 -5 22 -8 -11 -11 -2 -10 40 0 42 3 50 10 35 7 -15 8 -9 5 23 -2
24 0 42 6 42 6 0 8 7 4 15 -3 8 -1 15 5 15 6 0 9 5 7 12 -2 6 4 20 15 31 10
10 16 25 13 33 -3 8 -2 13 2 11 4 -3 18 10 32 27 19 24 20 28 5 16 -11 -8 -7
0 9 18 31 33 48 44 25 15 -8 -9 0 -7 19 7 31 23 45 39 20 24 -7 -4 -8 -3 -4 4
4 6 13 9 21 6 8 -4 17 1 21 9 3 9 12 13 21 10 10 -4 14 -2 10 4 -4 6 -1 11 6
10 34 -1 58 4 53 11 -2 4 11 6 31 4 25 -3 34 -1 29 7 -5 7 6 11 34 11 28 0 39
-4 34 -11z m2776 -953 c0 -2 -8 -10 -17 -17 -16 -13 -17 -12 -4 4 13 16 21 21
21 13z m211 -53 c13 -16 12 -17 -3 -4 -10 7 -18 15 -18 17 0 8 8 3 21 -13z
m-177 -20 c-9 -15 -60 -81 -113 -147 -52 -66 -123 -156 -156 -201 -34 -44 -92
-120 -131 -170 -103 -132 -338 -436 -419 -542 -38 -50 -120 -156 -181 -235
-123 -159 -272 -353 -408 -531 -50 -65 -134 -174 -186 -242 -52 -67 -138 -179
-190 -246 -108 -142 -277 -357 -321 -409 -43 -50 70 99 208 276 65 84 165 213
223 289 58 75 149 193 203 263 53 70 132 172 174 227 192 250 282 366 347 450
38 50 105 136 148 193 82 108 271 352 392 507 39 50 97 126 131 170 33 45 104
135 156 201 53 66 104 132 113 147 10 15 21 27 23 27 3 0 -3 -12 -13 -27z
m-94 -7 c0 -2 -8 -10 -17 -17 -16 -13 -17 -12 -4 4 13 16 21 21 21 13z m-40
-50 c0 -2 -8 -10 -17 -17 -16 -13 -17 -12 -4 4 13 16 21 21 21 13z m381 -13
c13 -16 12 -17 -3 -4 -10 7 -18 15 -18 17 0 8 8 3 21 -13z m-421 -37 c0 -2 -8
-10 -17 -17 -16 -13 -17 -12 -4 4 13 16 21 21 21 13z m-30 -40 c0 -2 -8 -10
-17 -17 -16 -13 -17 -12 -4 4 13 16 21 21 21 13z m521 -13 c13 -16 12 -17 -3
-4 -10 7 -18 15 -18 17 0 8 8 3 21 -13z m-561 -37 c0 -2 -8 -10 -17 -17 -16
-13 -17 -12 -4 4 13 16 21 21 21 13z m-30 -40 c0 -2 -8 -10 -17 -17 -16 -13
-17 -12 -4 4 13 16 21 21 21 13z m701 -63 c13 -16 12 -17 -3 -4 -10 7 -18 15
-18 17 0 8 8 3 21 -13z m30 -40 c13 -16 12 -17 -3 -4 -10 7 -18 15 -18 17 0 8
8 3 21 -13z m-831 -27 c0 -2 -8 -10 -17 -17 -16 -13 -17 -12 -4 4 13 16 21 21
21 13z m-40 -50 c0 -2 -8 -10 -17 -17 -16 -13 -17 -12 -4 4 13 16 21 21 21 13z
m-40 -50 c0 -2 -8 -10 -17 -17 -16 -13 -17 -12 -4 4 13 16 21 21 21 13z m-30
-40 c0 -2 -8 -10 -17 -17 -16 -13 -17 -12 -4 4 13 16 21 21 21 13z m1221 -193
c13 -16 12 -17 -3 -4 -10 7 -18 15 -18 17 0 8 8 3 21 -13z m-1381 -17 c0 -2
-8 -10 -17 -17 -16 -13 -17 -12 -4 4 13 16 21 21 21 13z m-40 -50 c0 -2 -8
-10 -17 -17 -16 -13 -17 -12 -4 4 13 16 21 21 21 13z m1491 -23 c13 -16 12
-17 -3 -4 -10 7 -18 15 -18 17 0 8 8 3 21 -13z m40 -50 c13 -16 12 -17 -3 -4
-10 7 -18 15 -18 17 0 8 8 3 21 -13z m-6443 -9 c123 -25 214 -74 307 -168 122
-123 178 -252 179 -416 1 -89 -6 -135 -33 -212 -26 -76 -35 -92 -96 -173 -84
-110 -187 -179 -325 -217 -96 -26 -264 -22 -353 11 -190 68 -336 224 -387 414
-32 119 -26 271 17 379 94 239 311 391 566 397 26 0 83 -6 125 -15z m4842 -8
c0 -2 -8 -10 -17 -17 -16 -13 -17 -12 -4 4 13 16 21 21 21 13z m1671 -73 c13
-16 12 -17 -3 -4 -10 7 -18 15 -18 17 0 8 8 3 21 -13z m-1731 -7 c0 -2 -8 -10
-17 -17 -16 -13 -17 -12 -4 4 13 16 21 21 21 13z m-30 -40 c0 -2 -8 -10 -17
-17 -16 -13 -17 -12 -4 4 13 16 21 21 21 13z m1831 -43 c13 -16 12 -17 -3 -4
-10 7 -18 15 -18 17 0 8 8 3 21 -13z m30 -40 c13 -16 12 -17 -3 -4 -10 7 -18
15 -18 17 0 8 8 3 21 -13z m-1931 -7 c0 -2 -8 -10 -17 -17 -16 -13 -17 -12 -4
4 13 16 21 21 21 13z m1971 -43 c13 -16 12 -17 -3 -4 -10 7 -18 15 -18 17 0 8
8 3 21 -13z m-2011 -7 c0 -2 -8 -10 -17 -17 -16 -13 -17 -12 -4 4 13 16 21 21
21 13z m-30 -40 c0 -2 -8 -10 -17 -17 -16 -13 -17 -12 -4 4 13 16 21 21 21 13z
m2111 -43 c13 -16 12 -17 -3 -4 -10 7 -18 15 -18 17 0 8 8 3 21 -13z m-2151
-7 c0 -2 -8 -10 -17 -17 -16 -13 -17 -12 -4 4 13 16 21 21 21 13z m-30 -40 c0
-2 -8 -10 -17 -17 -16 -13 -17 -12 -4 4 13 16 21 21 21 13z m2251 -43 c13 -16
12 -17 -3 -4 -10 7 -18 15 -18 17 0 8 8 3 21 -13z m-2281 3 c0 -2 -8 -10 -17
-17 -16 -13 -17 -12 -4 4 13 16 21 21 21 13z m-60 -79 c0 -2 -10 -12 -22 -23
l-23 -19 19 23 c18 21 26 27 26 19z m2441 -54 c13 -16 12 -17 -3 -4 -10 7 -18
15 -18 17 0 8 8 3 21 -13z m-2521 -47 c0 -2 -8 -10 -17 -17 -16 -13 -17 -12
-4 4 13 16 21 21 21 13z m-60 -80 c0 -2 -8 -10 -17 -17 -16 -13 -17 -12 -4 4
13 16 21 21 21 13z m2691 -13 c13 -16 12 -17 -3 -4 -10 7 -18 15 -18 17 0 8 8
3 21 -13z m-2761 -77 c0 -2 -8 -10 -17 -17 -16 -13 -17 -12 -4 4 13 16 21 21
21 13z m-30 -40 c0 -2 -8 -10 -17 -17 -16 -13 -17 -12 -4 4 13 16 21 21 21 13z
m-70 -90 c0 -2 -8 -10 -17 -17 -16 -13 -17 -12 -4 4 13 16 21 21 21 13z m3031
-13 c13 -16 12 -17 -3 -4 -10 7 -18 15 -18 17 0 8 8 3 21 -13z m-3131 -117 c0
-2 -8 -10 -17 -17 -16 -13 -17 -12 -4 4 13 16 21 21 21 13z m-100 -130 c0 -2
-8 -10 -17 -17 -16 -13 -17 -12 -4 4 13 16 21 21 21 13z m-30 -40 c0 -2 -8
-10 -17 -17 -16 -13 -17 -12 -4 4 13 16 21 21 21 13z m3541 -73 c13 -16 12
-17 -3 -4 -10 7 -18 15 -18 17 0 8 8 3 21 -13z m-3611 -17 c0 -2 -8 -10 -17
-17 -16 -13 -17 -12 -4 4 13 16 21 21 21 13z m-30 -40 c0 -2 -8 -10 -17 -17
-16 -13 -17 -12 -4 4 13 16 21 21 21 13z m3741 -73 c13 -16 12 -17 -3 -4 -10
7 -18 15 -18 17 0 8 8 3 21 -13z m-1738 -79 c321 -106 501 -468 392 -788 -61
-179 -217 -333 -400 -393 -115 -38 -266 -38 -381 0 -79 26 -169 79 -230 134
-80 73 -150 191 -178 299 -20 78 -21 241 -1 314 53 200 216 371 413 435 109
35 278 35 385 -1z m-2103 22 c0 -2 -8 -10 -17 -17 -16 -13 -17 -12 -4 4 13 16
21 21 21 13z m-70 -90 c0 -2 -8 -10 -17 -17 -16 -13 -17 -12 -4 4 13 16 21 21
21 13z m4051 -33 c13 -16 12 -17 -3 -4 -10 7 -18 15 -18 17 0 8 8 3 21 -13z
m-4091 -17 c0 -2 -8 -10 -17 -17 -16 -13 -17 -12 -4 4 13 16 21 21 21 13z
m4131 -33 c13 -16 12 -17 -3 -4 -10 7 -18 15 -18 17 0 8 8 3 21 -13z m44 -51
c-3 -3 -11 0 -18 7 -9 10 -8 11 6 5 10 -3 15 -9 12 -12z m-4245 -5 c0 -2 -10
-12 -22 -23 l-23 -19 19 23 c18 21 26 27 26 19z m-40 -51 c0 -2 -8 -10 -17
-17 -16 -13 -17 -12 -4 4 13 16 21 21 21 13z m-1430 -100 c0 -2 -8 -10 -17
-17 -16 -13 -17 -12 -4 4 13 16 21 21 21 13z m24 -88 c-8 -12 -86 -114 -383
-498 -75 -96 -177 -228 -226 -293 -145 -189 -252 -328 -503 -651 -69 -89 -172
-223 -348 -451 -63 -82 -146 -190 -185 -240 -38 -49 -106 -138 -152 -196 -45
-59 -125 -162 -177 -229 -52 -68 -114 -148 -137 -179 -63 -85 -77 -101 -56
-66 19 32 35 53 183 244 52 68 132 171 177 230 46 58 114 147 152 196 39 50
122 158 185 240 176 228 279 362 348 451 249 320 356 458 503 651 50 65 153
199 230 299 77 99 196 253 265 342 112 146 146 187 124 150z m-114 -32 c0 -2
-8 -10 -17 -17 -16 -13 -17 -12 -4 4 13 16 21 21 21 13z m-70 -90 c0 -2 -8
-10 -17 -17 -16 -13 -17 -12 -4 4 13 16 21 21 21 13z m-4069 -43 c13 -16 12
-17 -3 -4 -10 7 -18 15 -18 17 0 8 8 3 21 -13z m4029 -7 c0 -2 -8 -10 -17 -17
-16 -13 -17 -12 -4 4 13 16 21 21 21 13z m-30 -40 c0 -2 -8 -10 -17 -17 -16
-13 -17 -12 -4 4 13 16 21 21 21 13z m-3889 -93 c13 -16 12 -17 -3 -4 -10 7
-18 15 -18 17 0 8 8 3 21 -13z m3829 13 c0 -2 -8 -10 -17 -17 -16 -13 -17 -12
-4 4 13 16 21 21 21 13z m-3799 -53 c13 -16 12 -17 -3 -4 -10 7 -18 15 -18 17
0 8 8 3 21 -13z m3769 13 c0 -2 -8 -10 -17 -17 -16 -13 -17 -12 -4 4 13 16 21
21 21 13z m-40 -50 c0 -2 -8 -10 -17 -17 -16 -13 -17 -12 -4 4 13 16 21 21 21
13z m-3659 -53 c13 -16 12 -17 -3 -4 -17 13 -22 21 -14 21 2 0 10 -8 17 -17z
m3589 -37 c0 -2 -8 -10 -17 -17 -16 -13 -17 -12 -4 4 13 16 21 21 21 13z
m-3519 -53 c13 -16 12 -17 -3 -4 -17 13 -22 21 -14 21 2 0 10 -8 17 -17z
m3449 -37 c0 -2 -8 -10 -17 -17 -16 -13 -17 -12 -4 4 13 16 21 21 21 13z
m-3379 -53 c13 -16 12 -17 -3 -4 -10 7 -18 15 -18 17 0 8 8 3 21 -13z m3349
13 c0 -2 -8 -10 -17 -17 -16 -13 -17 -12 -4 4 13 16 21 21 21 13z m-3309 -63
c13 -16 12 -17 -3 -4 -17 13 -22 21 -14 21 2 0 10 -8 17 -17z m3209 -67 c0 -2
-8 -10 -17 -17 -16 -13 -17 -12 -4 4 13 16 21 21 21 13z m-30 -40 c0 -2 -8
-10 -17 -17 -16 -13 -17 -12 -4 4 13 16 21 21 21 13z m-30 -40 c0 -2 -8 -10
-17 -17 -16 -13 -17 -12 -4 4 13 16 21 21 21 13z m-3019 -23 c13 -16 12 -17
-3 -4 -17 13 -22 21 -14 21 2 0 10 -8 17 -17z m2979 -27 c0 -2 -8 -10 -17 -17
-16 -13 -17 -12 -4 4 13 16 21 21 21 13z m-2939 -23 c13 -16 12 -17 -3 -4 -10
7 -18 15 -18 17 0 8 8 3 21 -13z m2869 -67 c0 -2 -8 -10 -17 -17 -16 -13 -17
-12 -4 4 13 16 21 21 21 13z m-2799 -23 c13 -16 12 -17 -3 -4 -10 7 -18 15
-18 17 0 8 8 3 21 -13z m70 -90 c13 -16 12 -17 -3 -4 -10 7 -18 15 -18 17 0 8
8 3 21 -13z m2629 -17 c0 -2 -8 -10 -17 -17 -16 -13 -17 -12 -4 4 13 16 21 21
21 13z m-2569 -63 c13 -16 12 -17 -3 -4 -10 7 -18 15 -18 17 0 8 8 3 21 -13z
m2499 -27 c0 -2 -8 -10 -17 -17 -16 -13 -17 -12 -4 4 13 16 21 21 21 13z
m-2459 -23 c13 -16 12 -17 -3 -4 -17 13 -22 21 -14 21 2 0 10 -8 17 -17z m30
-40 c13 -16 12 -17 -3 -4 -10 7 -18 15 -18 17 0 8 8 3 21 -13z m40 -50 c13
-16 12 -17 -3 -4 -10 7 -18 15 -18 17 0 8 8 3 21 -13z m2289 -17 c0 -2 -8 -10
-17 -17 -16 -13 -17 -12 -4 4 13 16 21 21 21 13z m-2259 -23 c13 -16 12 -17
-3 -4 -17 13 -22 21 -14 21 2 0 10 -8 17 -17z m70 -90 c13 -16 12 -17 -3 -4
-17 13 -22 21 -14 21 2 0 10 -8 17 -17z m2089 -17 c0 -2 -8 -10 -17 -17 -16
-13 -17 -12 -4 4 13 16 21 21 21 13z m-40 -50 c0 -2 -8 -10 -17 -17 -16 -13
-17 -12 -4 4 13 16 21 21 21 13z m-1949 -63 c13 -16 12 -17 -3 -4 -10 7 -18
15 -18 17 0 8 8 3 21 -13z m30 -40 c13 -16 12 -17 -3 -4 -17 13 -22 21 -14 21
2 0 10 -8 17 -17z m1819 -27 c0 -2 -8 -10 -17 -17 -16 -13 -17 -12 -4 4 13 16
21 21 21 13z m-1779 -23 c13 -16 12 -17 -3 -4 -17 13 -22 21 -14 21 2 0 10 -8
17 -17z m1749 -17 c0 -2 -8 -10 -17 -17 -16 -13 -17 -12 -4 4 13 16 21 21 21
13z m-30 -39 c0 -2 -10 -12 -22 -23 l-23 -19 19 23 c18 21 26 27 26 19z
m-1649 -34 c13 -16 12 -17 -3 -4 -17 13 -22 21 -14 21 2 0 10 -8 17 -17z
m1609 -17 c0 -2 -8 -10 -17 -17 -16 -13 -17 -12 -4 4 13 16 21 21 21 13z m-70
-90 c0 -2 -8 -10 -17 -17 -16 -13 -17 -12 -4 4 13 16 21 21 21 13z m2240 -26
c248 -47 395 -291 321 -531 -52 -166 -191 -275 -367 -286 -134 -9 -239 32
-329 128 -86 92 -127 224 -106 341 30 172 158 309 321 344 70 16 95 16 160 4z
m-2270 -14 c0 -2 -8 -10 -17 -17 -16 -13 -17 -12 -4 4 13 16 21 21 21 13z
m-100 -130 c0 -2 -8 -10 -17 -17 -16 -13 -17 -12 -4 4 13 16 21 21 21 13z
m-70 -90 c0 -2 -8 -10 -17 -17 -16 -13 -17 -12 -4 4 13 16 21 21 21 13z
m-1029 -33 c13 -16 12 -17 -3 -4 -10 7 -18 15 -18 17 0 8 8 3 21 -13z m959
-57 c0 -2 -8 -10 -17 -17 -16 -13 -17 -12 -4 4 13 16 21 21 21 13z m-899 -23
c13 -16 12 -17 -3 -4 -10 7 -18 15 -18 17 0 8 8 3 21 -13z m829 -67 c0 -2 -8
-10 -17 -17 -16 -13 -17 -12 -4 4 13 16 21 21 21 13z m-749 -33 c13 -16 12
-17 -3 -4 -10 7 -18 15 -18 17 0 8 8 3 21 -13z m719 -7 c0 -2 -8 -10 -17 -17
-16 -13 -17 -12 -4 4 13 16 21 21 21 13z m-659 -73 c13 -16 12 -17 -3 -4 -10
7 -18 15 -18 17 0 8 8 3 21 -13z m589 -17 c0 -2 -8 -10 -17 -17 -16 -13 -17
-12 -4 4 13 16 21 21 21 13z m-549 -33 c13 -16 12 -17 -3 -4 -17 13 -22 21
-14 21 2 0 10 -8 17 -17z m509 -17 c0 -2 -8 -10 -17 -17 -16 -13 -17 -12 -4 4
13 16 21 21 21 13z m-439 -73 c13 -16 12 -17 -3 -4 -10 7 -18 15 -18 17 0 8 8
3 21 -13z m70 -90 c13 -16 12 -17 -3 -4 -10 7 -18 15 -18 17 0 8 8 3 21 -13z
m239 -7 c0 -2 -8 -10 -17 -17 -16 -13 -17 -12 -4 4 13 16 21 21 21 13z m-209
-33 c13 -16 12 -17 -3 -4 -17 13 -22 21 -14 21 2 0 10 -8 17 -17z m179 -7 c0
-2 -8 -10 -17 -17 -16 -13 -17 -12 -4 4 13 16 21 21 21 13z m-139 -43 c13 -16
12 -17 -3 -4 -10 7 -18 15 -18 17 0 8 8 3 21 -13z m109 3 c0 -2 -8 -10 -17
-17 -16 -13 -17 -12 -4 4 13 16 21 21 21 13z"/>
<path d="M10226 2845 c-21 -582 -93 -972 -243 -1325 -227 -534 -729 -1035
-1264 -1263 -353 -151 -711 -216 -1349 -246 -97 -5 462 -9 1353 -10 l1517 -1
0 1515 c0 833 -2 1515 -3 1515 -2 0 -7 -83 -11 -185z"/>
</g>
</svg>
